<?xml version="1.0" encoding="UTF-8"?>
<svg id="Layer_1" data-name="Layer 1" xmlns="http://www.w3.org/2000/svg" viewBox="0 0 105.8 39.8">
  <defs>
    <style>
      .cls-1 {
        fill: #fff;
      }

      .cls-2 {
        fill: #de0813;
      }
    </style>
  </defs>
  <path class="cls-2" d="M0,0h105.8v39.8H0V0Z"/>
  <path class="cls-1" d="M96.8,19.8c2.2,0,2.2-2.8,2.2-5,0-6.7-2.2-8-11.6-8.1h-40.1c-10,0-10.4,3.6-10.4,8.3,0,6.4,1.4,7.8,13.3,7.8,10.2,0,11.1.1,11.1,2.4,0,2-1.7,2.2-3.4,2.2h-23.5c-1.6,0-3.7-.1-4.1-.2-.7-.3-1-.7-1-.7l-7-6.8,14-12.9h-8.8l-10.6,9.9h-3.5V6.7h-6.7v26.4h6.8v-10.4h3.5l7.4,7.3s.3.2.8.8c.9.9,2.2,1.7,3.2,1.9,1,.3,3.8.3,3.8.3h22.8c10.5,0,12.9-1.1,12.9-8.1,0-7.5-2.9-8.3-15.2-8.2-8.5,0-9.5,0-9.5-2.3,0-1.4,1.2-2,3-2h43.3c2,0,2.9.3,2.9,2.1,0,1.5-.6,2.1-2.3,2.1h-19.1v16.3h6.6v-10.1h12.4c1.2,0,2.4.9,2.4,2.2v8h6.6v-8.1c0-2.2,0-5.1-2.2-5.1Z"/>
</svg>