<?xml version="1.0" encoding="UTF-8"?>
<svg xmlns="http://www.w3.org/2000/svg" xmlns:xlink="http://www.w3.org/1999/xlink" width="674pt" height="209pt" viewBox="0 0 674 209" version="1.1">
<g id="surface1">
<path style="fill-rule:nonzero;fill:rgb(87.057495%,12.156677%,14.901733%);fill-opacity:1;stroke-width:0.06667;stroke-linecap:round;stroke-linejoin:round;stroke:rgb(87.057495%,12.156677%,14.901733%);stroke-opacity:1;stroke-miterlimit:10;" d="M 287.729257 67.469947 L 255.001766 10.798182 L 254.329616 9.730659 L 251.800212 6.731848 L 247.798269 3.671023 L 243.128598 1.730877 L 239.268161 1.070873 L 236.729912 1.070873 L 233.002135 1.730877 L 229.000192 3.267934 L 228.270556 3.728608 L 226.599027 4.672104 L 222.398092 8.871325 L 219.130207 15.599823 L 218.599563 23.130072 L 220.129588 28.870779 L 221.071481 30.531863 L 221.128968 30.598306 L 228.270556 42.930196 L 228.398796 43.328856 L 229.331845 46.270083 L 229.331845 48.130497 L 228.66854 50.80152 L 226.731688 53.671874 L 223.87063 55.527859 L 221.270473 56.272024 L 70.200446 56.272024 L 67.529536 55.527859 L 64.730387 53.671874 L 62.797958 50.80152 L 62.068322 48.130497 L 62.068322 46.19921 L 63.001371 43.328856 L 63.200363 43.001069 L 70.328685 30.598306 L 70.399438 30.531863 L 71.000835 29.397896 L 72.871356 23.271818 L 72.667943 16.871106 L 72.331868 15.599823 L 72.000215 14.32854 L 68.931322 8.729579 L 64.327982 4.401901 L 63.200363 3.728608 L 62.470727 3.267934 L 58.468784 1.730877 L 54.670255 1.070873 L 52.132006 1.070873 L 48.329055 1.730877 L 43.668228 3.728608 L 39.599955 6.731848 L 37.07055 9.730659 L 36.469153 10.798182 L 3.728396 67.469947 L 2.799769 69.131031 L 1.269744 74.871738 L 1.800389 82.331114 L 5.068273 89.130486 L 9.269208 93.329707 L 10.931894 94.268773 L 11.670374 94.729447 L 15.667894 96.20006 L 19.470846 96.930937 L 28.398937 96.930937 L 29.331987 97.00181 L 31.799483 97.799131 L 34.868376 99.730418 L 37.269542 102.401441 L 37.870939 103.398092 L 100.601946 211.798235 L 100.668277 211.931121 L 102.330962 214.867918 L 108.92864 222.87213 L 119.669767 231.199699 L 132.069156 236.470873 L 142.328281 238.269273 L 149.129373 238.269273 L 159.33101 236.470873 L 171.801153 231.199699 L 182.471526 222.87213 L 189.069205 214.867918 L 190.73189 211.931121 L 190.798221 211.931121 L 190.798221 211.798235 L 190.868973 211.798235 L 253.59998 103.398092 L 254.201377 102.330568 L 256.531791 99.730418 L 259.600684 97.799131 L 262.130089 97.00181 L 263.071982 96.930937 L 272.000074 96.930937 L 275.798603 96.20006 L 279.800546 94.729447 L 280.530182 94.268773 L 281.671067 93.59991 L 286.269985 89.201358 L 289.330034 83.597968 L 289.670531 82.331114 L 290.002183 81.06869 L 290.201175 74.729993 L 288.330654 68.599484 L 287.729257 67.469947 M 200.128717 114.600444 L 155.669564 191.727907 L 155.271581 192.4012 L 153.799043 194.128728 L 151.46863 195.998001 L 148.731389 197.131968 L 146.529215 197.601501 L 144.928438 197.601501 L 142.668777 197.131968 L 139.931537 195.998001 L 137.601124 194.128728 L 136.128586 192.330327 L 135.801355 191.727907 L 91.271449 114.600444 L 90.731961 113.727821 L 89.670672 108.73128 L 90.731961 103.730309 L 91.271449 102.800101 L 91.669433 102.131238 L 93.128705 100.328408 L 95.600623 98.467994 L 98.399772 97.329597 L 100.730185 96.930937 L 190.73189 96.930937 L 193.000395 97.329597 L 195.870296 98.467994 L 198.271462 100.328408 L 199.801487 102.131238 L 200.19947 102.800101 L 200.730114 103.730309 L 201.729494 108.73128 L 200.668206 113.727821 Z M 200.128717 114.600444 " transform="matrix(0.88336,0,0,0.88186,-0.88336,-0.88186)"/>
<path style="fill-rule:nonzero;fill:rgb(87.057495%,12.156677%,14.901733%);fill-opacity:1;stroke-width:0.06667;stroke-linecap:round;stroke-linejoin:round;stroke:rgb(87.057495%,12.156677%,14.901733%);stroke-opacity:1;stroke-miterlimit:10;" d="M 418.732083 41.401998 L 415.269628 41.401998 L 404.798246 42.801739 L 391.868212 46.868073 L 380.132128 53.197911 L 369.868581 61.671656 L 361.400382 71.930512 L 355.068026 83.668841 L 350.999752 96.59872 L 349.597967 107.070195 L 349.597967 183.998329 L 350.800761 188.472182 L 354.130554 193.397851 L 359.069969 196.728878 L 363.598134 197.929289 L 366.600696 197.929289 L 371.128862 196.728878 L 376.068276 193.397851 L 379.331739 188.472182 L 380.600863 183.998329 L 380.600863 108.598393 L 381.330499 102.870974 L 383.599004 95.730527 L 387.132211 89.201358 L 391.801881 83.597968 L 397.400179 78.929214 L 403.869619 75.398856 L 411.068694 73.201795 L 416.799653 72.400045 L 420.668935 72.400045 L 426.399894 73.201795 L 433.528216 75.398856 L 440.068408 78.929214 L 445.671128 83.597968 L 450.331954 89.201358 L 453.869583 95.730527 L 456.071757 102.870974 L 456.872146 108.598393 L 456.872146 183.998329 L 458.070518 188.472182 L 461.400311 193.397851 L 466.330882 196.728878 L 470.867891 197.929289 L 473.870453 197.929289 L 478.398619 196.728878 L 483.329189 193.397851 L 486.601496 188.472182 L 487.87062 183.998329 L 487.87062 107.070195 L 486.468835 96.59872 L 482.400561 83.668841 L 476.001875 71.930512 L 467.600006 61.671656 L 457.332038 53.197911 L 445.600375 46.868073 L 432.670341 42.801739 L 422.198959 41.401998 Z M 418.732083 41.401998 " transform="matrix(0.88336,0,0,0.88186,-0.88336,-0.88186)"/>
<path style="fill-rule:nonzero;fill:rgb(87.057495%,12.156677%,14.901733%);fill-opacity:1;stroke-width:0.06667;stroke-linecap:round;stroke-linejoin:round;stroke:rgb(87.057495%,12.156677%,14.901733%);stroke-opacity:1;stroke-miterlimit:10;" d="M 748.470065 41.401998 L 746.931196 41.401998 L 742.469361 42.597979 L 737.529947 45.929007 L 734.200153 50.867964 L 733.001782 55.399402 L 733.001782 130.728465 L 732.201393 136.531186 L 729.999219 143.671633 L 726.470434 150.129929 L 721.800764 155.799763 L 716.131713 160.468517 L 709.671118 163.998875 L 702.529529 166.200365 L 696.727818 167.002115 L 692.929288 167.002115 L 687.131999 166.200365 L 679.999254 163.998875 L 673.529815 160.468517 L 667.869609 155.799763 L 663.199938 150.129929 L 659.72864 143.671633 L 657.468979 136.531186 L 656.730499 130.728465 L 656.730499 55.399402 L 655.470219 50.867964 L 652.131581 45.929007 L 647.271763 42.597979 L 642.730332 41.401998 L 639.732192 41.401998 L 635.199604 42.597979 L 630.269034 45.929007 L 626.930396 50.867964 L 625.732025 55.399402 L 625.732025 132.331965 L 627.129388 142.728137 L 631.131331 155.72889 L 637.530017 167.471648 L 645.998217 177.66849 L 656.199855 186.128946 L 667.931517 192.529657 L 680.927882 196.529548 L 691.399264 197.929289 L 698.328595 197.929289 L 708.729224 196.529548 L 721.730011 192.529657 L 733.470517 186.128946 L 743.672155 177.66849 L 752.131511 167.471648 L 758.530197 155.72889 L 762.53214 142.728137 L 764.000256 132.331965 L 764.000256 55.399402 L 762.731132 50.867964 L 759.401338 45.929007 L 754.470768 42.668852 L 750.000089 41.401998 Z M 748.470065 41.401998 " transform="matrix(0.88336,0,0,0.88186,-0.88336,-0.88186)"/>
<path style="fill-rule:nonzero;fill:rgb(87.057495%,12.156677%,14.901733%);fill-opacity:1;stroke-width:0.06667;stroke-linecap:round;stroke-linejoin:round;stroke:rgb(87.057495%,12.156677%,14.901733%);stroke-opacity:1;stroke-miterlimit:10;" d="M 556.801323 41.401998 L 555.271298 41.401998 L 550.729867 42.597979 L 545.799296 45.929007 L 542.531411 50.867964 L 541.271131 55.399402 L 541.271131 182.930805 L 542.531411 187.471102 L 545.799296 192.4012 L 550.729867 195.727798 L 555.271298 196.928209 L 558.269439 196.928209 L 562.802026 195.727798 L 567.728174 192.4012 L 571.071234 187.471102 L 572.269606 182.930805 L 572.269606 55.399402 L 571.071234 50.867964 L 567.728174 45.929007 L 562.802026 42.668852 L 558.269439 41.401998 Z M 556.801323 41.401998 " transform="matrix(0.88336,0,0,0.88186,-0.88336,-0.88186)"/>
</g>
</svg>
